<svg xmlns="http://www.w3.org/2000/svg" xmlns:xlink="http://www.w3.org/1999/xlink" width="435px" height="394px" version="1.1"><defs/><g transform="translate(0.5,0.5)"><ellipse cx="50" cy="12" rx="10" ry="10" fill="#ffffff" stroke="#000000" pointer-events="none"/><path d="M 50 22 L 50 55 M 50 29 L 30 29 M 50 29 L 70 29 M 50 55 L 30 82 M 50 55 L 70 82" fill="none" stroke="#000000" stroke-miterlimit="10" pointer-events="none"/><g text-anchor="middle" font-size="12px"><text x="50" y="100" fill="#000000" font-family="Helvetica">Bank A</text></g><ellipse cx="380" cy="12" rx="10" ry="10" fill="#ffffff" stroke="#000000" pointer-events="none"/><path d="M 380 22 L 380 55 M 380 29 L 360 29 M 380 29 L 400 29 M 380 55 L 360 82 M 380 55 L 400 82" fill="none" stroke="#000000" stroke-miterlimit="10" pointer-events="none"/><g text-anchor="middle" font-size="12px"><text x="380" y="100" fill="#000000" font-family="Helvetica">Bank B</text></g><ellipse cx="211" cy="12" rx="10" ry="10" fill="#ffffff" stroke="#000000" pointer-events="none"/><path d="M 211 22 L 211 55 M 211 29 L 191 29 M 211 29 L 231 29 M 211 55 L 191 82 M 211 55 L 231 82" fill="none" stroke="#000000" stroke-miterlimit="10" pointer-events="none"/><g text-anchor="middle" font-size="12px"><text x="211" y="100" fill="#000000" font-family="Helvetica">Central Authority</text></g><rect x="3" y="92" width="100" height="40" fill="#ffffff" stroke="#000000" pointer-events="none"/><path d="M 53 132 L 53 392" fill="none" stroke="#000000" stroke-miterlimit="10" stroke-dasharray="3 3" pointer-events="none"/><g text-anchor="middle" font-size="12px"><text x="53" y="116" fill="#000000" font-family="Helvetica">:Object</text></g><rect x="165" y="92" width="100" height="40" fill="#ffffff" stroke="#000000" pointer-events="none"/><path d="M 215 132 L 215 392" fill="none" stroke="#000000" stroke-miterlimit="10" stroke-dasharray="3 3" pointer-events="none"/><g text-anchor="middle" font-size="12px"><text x="215" y="116" fill="#000000" font-family="Helvetica">:Object</text></g><rect x="334" y="92" width="100" height="40" fill="#ffffff" stroke="#000000" pointer-events="none"/><path d="M 384 132 L 384 392" fill="none" stroke="#000000" stroke-miterlimit="10" stroke-dasharray="3 3" pointer-events="none"/><g text-anchor="middle" font-size="12px"><text x="384" y="116" fill="#000000" font-family="Helvetica">:Object</text></g><rect x="205" y="162" width="20" height="70" fill="#ffffff" stroke="#000000" pointer-events="none"/><rect x="44" y="207" width="20" height="70" fill="#ffffff" stroke="#000000" pointer-events="none"/><path d="M 205 225 L 144 225 Q 134 225 124 225 L 72 225" fill="none" stroke="#000000" stroke-miterlimit="10" pointer-events="none"/><path d="M 65 225 L 72 221 L 72 228 Z" fill="#000000" stroke="#000000" stroke-miterlimit="10" pointer-events="none"/><g text-anchor="middle" font-size="11px"><rect fill="#ffffff" stroke="none" x="94" y="210" width="82" height="13" stroke-width="0"/><text x="134" y="219" fill="#000000" font-family="Helvetica">prepare operation</text></g><rect x="374" y="207" width="20" height="70" fill="#ffffff" stroke="#000000" pointer-events="none"/><path d="M 225 225 L 289 225 Q 299 225 309 225 L 365 225" fill="none" stroke="#000000" stroke-miterlimit="10" pointer-events="none"/><path d="M 372 225 L 365 228 L 365 221 Z" fill="#000000" stroke="#000000" stroke-miterlimit="10" pointer-events="none"/><g text-anchor="middle" font-size="11px"><rect fill="#ffffff" stroke="none" x="259" y="210" width="82" height="13" stroke-width="0"/><text x="299" y="219" fill="#000000" font-family="Helvetica">prepare operation</text></g><rect x="205" y="242" width="20" height="80" fill="#ffffff" stroke="#000000" pointer-events="none"/><path d="M 64 260 L 124 260 Q 134 260 144 260 L 196 260" fill="none" stroke="#000000" stroke-miterlimit="10" pointer-events="none"/><path d="M 203 260 L 196 263 L 196 256 Z" fill="#000000" stroke="#000000" stroke-miterlimit="10" pointer-events="none"/><g text-anchor="middle" font-size="11px"><rect fill="#ffffff" stroke="none" x="116" y="235" width="70" height="13" stroke-width="0"/><text x="150" y="244" fill="#000000" font-family="Helvetica">agree/disagree</text></g><path d="M 374 260 L 309 260 Q 299 260 289 260 L 233 260" fill="none" stroke="#000000" stroke-miterlimit="10" pointer-events="none"/><path d="M 226 260 L 233 256 L 233 263 Z" fill="#000000" stroke="#000000" stroke-miterlimit="10" pointer-events="none"/><g text-anchor="middle" font-size="11px"><rect fill="#ffffff" stroke="none" x="281" y="235" width="70" height="13" stroke-width="0"/><text x="315" y="244" fill="#000000" font-family="Helvetica">agree/disagree</text></g><rect x="43" y="292" width="20" height="70" fill="#ffffff" stroke="#000000" pointer-events="none"/><path d="M 205 310 L 144 310 Q 134 310 124 310 L 71 310" fill="none" stroke="#000000" stroke-miterlimit="10" pointer-events="none"/><path d="M 64 310 L 71 306 L 71 313 Z" fill="#000000" stroke="#000000" stroke-miterlimit="10" pointer-events="none"/><g text-anchor="middle" font-size="11px"><rect fill="#ffffff" stroke="none" x="113" y="285" width="75" height="13" stroke-width="0"/><text x="150" y="294" fill="#000000" font-family="Helvetica">commit/rollback</text></g><path d="M 225 310 L 289 310 Q 299 310 309 310 L 365 310" fill="none" stroke="#000000" stroke-miterlimit="10" pointer-events="none"/><path d="M 372 310 L 365 313 L 365 306 Z" fill="#000000" stroke="#000000" stroke-miterlimit="10" pointer-events="none"/><g text-anchor="middle" font-size="11px"><rect fill="#ffffff" stroke="none" x="278" y="285" width="75" height="13" stroke-width="0"/><text x="315" y="294" fill="#000000" font-family="Helvetica">commit/rollback</text></g><rect x="374" y="292" width="20" height="70" fill="#ffffff" stroke="#000000" pointer-events="none"/><path d="M 63 345 L 104 345 Q 114 345 124 345 L 206 345" fill="none" stroke="#000000" stroke-miterlimit="10" pointer-events="none"/><path d="M 213 345 L 206 348 L 206 341 Z" fill="#000000" stroke="#000000" stroke-miterlimit="10" pointer-events="none"/><g text-anchor="middle" font-size="11px"><rect fill="#ffffff" stroke="none" x="146" y="320" width="19" height="13" stroke-width="0"/><text x="155" y="329" fill="#000000" font-family="Helvetica">ack</text></g><path d="M 374 345 L 329 345 Q 319 345 309 345 L 223 345" fill="none" stroke="#000000" stroke-miterlimit="10" pointer-events="none"/><path d="M 216 345 L 223 341 L 223 348 Z" fill="#000000" stroke="#000000" stroke-miterlimit="10" pointer-events="none"/><g text-anchor="middle" font-size="11px"><rect fill="#ffffff" stroke="none" x="301" y="320" width="19" height="13" stroke-width="0"/><text x="310" y="329" fill="#000000" font-family="Helvetica">ack</text></g></g></svg>