<svg xmlns="http://www.w3.org/2000/svg" xmlns:xlink="http://www.w3.org/1999/xlink" width="464px" height="504px" version="1.1"><defs/><g transform="translate(0.5,0.5)"><ellipse cx="52" cy="12" rx="10" ry="10" fill="#ffffff" stroke="#000000" pointer-events="none"/><path d="M 52 22 L 52 55 M 52 29 L 32 29 M 52 29 L 72 29 M 52 55 L 32 82 M 52 55 L 72 82" fill="none" stroke="#000000" stroke-miterlimit="10" pointer-events="none"/><g text-anchor="middle" font-size="12px"><text x="52" y="100" fill="#000000" font-family="Helvetica">Player A</text></g><rect x="2" y="122" width="100" height="40" fill="#ffffff" stroke="#000000" pointer-events="none"/><path d="M 52 162 L 52 502" fill="none" stroke="#000000" stroke-miterlimit="10" stroke-dasharray="3 3" pointer-events="none"/><g text-anchor="middle" font-size="12px"><text x="52" y="146" fill="#000000" font-family="Helvetica">Client A</text></g><ellipse cx="412" cy="12" rx="10" ry="10" fill="#ffffff" stroke="#000000" pointer-events="none"/><path d="M 412 22 L 412 55 M 412 29 L 392 29 M 412 29 L 432 29 M 412 55 L 392 82 M 412 55 L 432 82" fill="none" stroke="#000000" stroke-miterlimit="10" pointer-events="none"/><g text-anchor="middle" font-size="12px"><text x="412" y="100" fill="#000000" font-family="Helvetica">Player B</text></g><rect x="362" y="122" width="100" height="40" fill="#ffffff" stroke="#000000" pointer-events="none"/><path d="M 412 162 L 412 502" fill="none" stroke="#000000" stroke-miterlimit="10" stroke-dasharray="3 3" pointer-events="none"/><g text-anchor="middle" font-size="12px"><text x="412" y="146" fill="#000000" font-family="Helvetica">Client B</text></g><rect x="192" y="122" width="100" height="40" fill="#ffffff" stroke="#000000" pointer-events="none"/><path d="M 242 162 L 242 502" fill="none" stroke="#000000" stroke-miterlimit="10" stroke-dasharray="3 3" pointer-events="none"/><g text-anchor="middle" font-size="12px"><text x="242" y="146" fill="#000000" font-family="Helvetica">Server</text></g><ellipse cx="242" cy="12" rx="10" ry="10" fill="#ffffff" stroke="#000000" pointer-events="none"/><path d="M 242 22 L 242 55 M 242 29 L 222 29 M 242 29 L 262 29 M 242 55 L 222 82 M 242 55 L 262 82" fill="none" stroke="#000000" stroke-miterlimit="10" pointer-events="none"/><g text-anchor="middle" font-size="12px"><text x="242" y="100" fill="#000000" font-family="Helvetica">Firebase</text></g><rect x="232" y="197" width="20" height="45" fill="#ffffff" stroke="#000000" pointer-events="none"/><path d="M 52 207 L 132 207 Q 142 207 152 207 L 224 207" fill="none" stroke="#000000" stroke-miterlimit="10" pointer-events="none"/><path d="M 231 207 L 224 211 L 224 204 Z" fill="#000000" stroke="#000000" stroke-miterlimit="10" pointer-events="none"/><g text-anchor="middle" font-size="11px"><rect fill="#ffffff" stroke="none" x="106" y="193" width="74" height="13" stroke-width="0"/><text x="142" y="201" fill="#000000" font-family="Helvetica">prepare to send</text></g><rect x="232" y="252" width="20" height="40" fill="#ffffff" stroke="#000000" pointer-events="none"/><path d="M 412 262 L 317 262 Q 307 262 297 262 L 260 262" fill="none" stroke="#000000" stroke-miterlimit="10" pointer-events="none"/><path d="M 253 262 L 260 259 L 260 266 Z" fill="#000000" stroke="#000000" stroke-miterlimit="10" pointer-events="none"/><g text-anchor="middle" font-size="11px"><rect fill="#ffffff" stroke="none" x="290" y="248" width="85" height="13" stroke-width="0"/><text x="332" y="256" fill="#000000" font-family="Helvetica">prepare to receive</text></g><rect x="232" y="302" width="20" height="40" fill="#ffffff" stroke="#000000" pointer-events="none"/><path d="M 52 312 L 132 312 Q 142 312 152 312 L 224 312" fill="none" stroke="#000000" stroke-miterlimit="10" pointer-events="none"/><path d="M 231 312 L 224 316 L 224 309 Z" fill="#000000" stroke="#000000" stroke-miterlimit="10" pointer-events="none"/><g text-anchor="middle" font-size="11px"><rect fill="#ffffff" stroke="none" x="93" y="298" width="99" height="13" stroke-width="0"/><text x="142" y="306" fill="#000000" font-family="Helvetica">acknowledge receive</text></g><rect x="232" y="352" width="20" height="40" fill="#ffffff" stroke="#000000" pointer-events="none"/><path d="M 412 370 L 342 370 Q 332 370 322 370 L 260 370" fill="none" stroke="#000000" stroke-miterlimit="10" pointer-events="none"/><path d="M 253 370 L 260 366 L 260 373 Z" fill="#000000" stroke="#000000" stroke-miterlimit="10" pointer-events="none"/><g text-anchor="middle" font-size="11px"><rect fill="#ffffff" stroke="none" x="281" y="355" width="103" height="13" stroke-width="0"/><text x="332" y="364" fill="#000000" font-family="Helvetica">acknowledge transmit</text></g><rect x="232" y="402" width="20" height="40" fill="#ffffff" stroke="#000000" pointer-events="none"/><path d="M 52 412 L 132 412 Q 142 412 152 412 L 224 412" fill="none" stroke="#000000" stroke-miterlimit="10" pointer-events="none"/><path d="M 231 412 L 224 416 L 224 409 Z" fill="#000000" stroke="#000000" stroke-miterlimit="10" pointer-events="none"/><g text-anchor="middle" font-size="11px"><rect fill="#ffffff" stroke="none" x="112" y="398" width="62" height="13" stroke-width="0"/><text x="142" y="406" fill="#000000" font-family="Helvetica">commit send</text></g><rect x="232" y="452" width="20" height="40" fill="#ffffff" stroke="#000000" pointer-events="none"/><path d="M 412 462 L 342 462 Q 332 462 322 462 L 260 462" fill="none" stroke="#000000" stroke-miterlimit="10" pointer-events="none"/><path d="M 253 462 L 260 459 L 260 466 Z" fill="#000000" stroke="#000000" stroke-miterlimit="10" pointer-events="none"/><g text-anchor="middle" font-size="11px"><rect fill="#ffffff" stroke="none" x="296" y="448" width="73" height="13" stroke-width="0"/><text x="332" y="456" fill="#000000" font-family="Helvetica">commit receive</text></g><rect x="32" y="222" width="40" height="20" rx="8" ry="8" fill="#ffffc0" stroke="#ff0000" pointer-events="none"/><g text-anchor="middle" font-size="12px"><text x="52" y="236" fill="#000000" font-family="Helvetica">TX</text></g><rect x="392" y="272" width="40" height="20" rx="8" ry="8" fill="#ffffc0" stroke="#ff0000" pointer-events="none"/><g text-anchor="middle" font-size="12px"><text x="412" y="286" fill="#000000" font-family="Helvetica">RX</text></g><rect x="392" y="172" width="40" height="20" rx="8" ry="8" fill="#ffffc0" stroke="#ff0000" pointer-events="none"/><g text-anchor="middle" font-size="12px"><text x="412" y="186" fill="#000000" font-family="Helvetica">IDLE</text></g><rect x="32" y="172" width="40" height="20" rx="8" ry="8" fill="#ffffc0" stroke="#ff0000" pointer-events="none"/><g text-anchor="middle" font-size="12px"><text x="52" y="186" fill="#000000" font-family="Helvetica">IDLE</text></g><rect x="27" y="372" width="50" height="20" rx="8" ry="8" fill="#ffffc0" stroke="#ff0000" pointer-events="none"/><g text-anchor="middle" font-size="12px"><text x="52" y="386" fill="#000000" font-family="Helvetica">ACK TX</text></g><path d="M 232 231 L 74 232" fill="none" stroke="#000000" stroke-miterlimit="10" stroke-dasharray="3 3" pointer-events="none"/><path d="M 86 225 L 73 232 L 86 238" fill="none" stroke="#000000" stroke-miterlimit="10" pointer-events="none"/><path d="M 252 282 L 390 282" fill="none" stroke="#000000" stroke-miterlimit="10" stroke-dasharray="3 3" pointer-events="none"/><path d="M 378 289 L 391 282 L 378 276" fill="none" stroke="#000000" stroke-miterlimit="10" pointer-events="none"/><rect x="387" y="322" width="50" height="20" rx="8" ry="8" fill="#ffffc0" stroke="#ff0000" pointer-events="none"/><g text-anchor="middle" font-size="12px"><text x="412" y="336" fill="#000000" font-family="Helvetica">ACK RX</text></g><path d="M 252 332 L 385 332" fill="none" stroke="#000000" stroke-miterlimit="10" stroke-dasharray="3 3" pointer-events="none"/><path d="M 373 339 L 386 332 L 373 326" fill="none" stroke="#000000" stroke-miterlimit="10" pointer-events="none"/><path d="M 232 382 L 79 382" fill="none" stroke="#000000" stroke-miterlimit="10" stroke-dasharray="3 3" pointer-events="none"/><path d="M 91 376 L 78 382 L 91 389" fill="none" stroke="#000000" stroke-miterlimit="10" pointer-events="none"/><rect x="32" y="422" width="40" height="20" rx="8" ry="8" fill="#ffffc0" stroke="#ff0000" pointer-events="none"/><g text-anchor="middle" font-size="12px"><text x="52" y="436" fill="#000000" font-family="Helvetica">IDLE</text></g><path d="M 232 432 L 74 432" fill="none" stroke="#000000" stroke-miterlimit="10" stroke-dasharray="3 3" pointer-events="none"/><path d="M 86 426 L 73 432 L 86 439" fill="none" stroke="#000000" stroke-miterlimit="10" pointer-events="none"/><rect x="392" y="472" width="40" height="20" rx="8" ry="8" fill="#ffffc0" stroke="#ff0000" pointer-events="none"/><g text-anchor="middle" font-size="12px"><text x="412" y="486" fill="#000000" font-family="Helvetica">IDLE</text></g><path d="M 252 482 L 390 482" fill="none" stroke="#000000" stroke-miterlimit="10" stroke-dasharray="3 3" pointer-events="none"/><path d="M 378 489 L 391 482 L 378 476" fill="none" stroke="#000000" stroke-miterlimit="10" pointer-events="none"/></g></svg>